HIERARCHY
ROOT Hips
{
	OFFSET -3.958830 18.904000 13.208200
	CHANNELS 6 Xposition Yposition Zposition Zrotation Yrotation Xrotation 
	JOINT LHipJoint
	{
		OFFSET 0.000000 0.000000 0.000000
		CHANNELS 3 Zrotation Yrotation Xrotation
		JOINT LeftUpLeg
		{
			OFFSET 1.800000 -1.400000 0.085000
			CHANNELS 3 Zrotation Yrotation Xrotation
			JOINT LeftLeg
			{
				OFFSET 2.215000 -6.000000 0.000000
				CHANNELS 3 Zrotation Yrotation Xrotation
				JOINT LeftFoot
				{
					OFFSET 2.500000 -6.900000 0.000000
					CHANNELS 3 Zrotation Yrotation Xrotation
					JOINT LeftToeBase
					{
						OFFSET 0.200000 -0.500000 1.950000
						CHANNELS 3 Zrotation Yrotation Xrotation
						End Site
						{
							OFFSET 0.000000 0.000000 0.000000
						}
					}
				}
			}
		}
	}
	JOINT RHipJoint
	{
		OFFSET 0.000000 0.000000 0.000000
		CHANNELS 3 Zrotation Yrotation Xrotation
		JOINT RightUpLeg
		{
			OFFSET -1.800000 -1.400000 0.085000
			CHANNELS 3 Zrotation Yrotation Xrotation
			JOINT RightLeg
			{
				OFFSET -2.215000 -6.000000 0.000000
				CHANNELS 3 Zrotation Yrotation Xrotation
				JOINT RightFoot
				{
					OFFSET -2.500000 -6.900000 0.000000
					CHANNELS 3 Zrotation Yrotation Xrotation
					JOINT RightToeBase
					{
						OFFSET -0.200000 -0.500000 1.950000
						CHANNELS 3 Zrotation Yrotation Xrotation
						End Site
						{
							OFFSET 0.000000 0.000000 0.000000
						}
					}
				}
			}
		}
	}
	JOINT LowerBack
	{
		OFFSET 0.000000 0.000000 0.000000
		CHANNELS 3 Zrotation Yrotation Xrotation
		JOINT Spine
		{
			OFFSET -0.087000 1.940000 -0.288900
			CHANNELS 3 Zrotation Yrotation Xrotation
			JOINT Spine1
			{
				OFFSET 0.000000 1.950000 0.060000
				CHANNELS 3 Zrotation Yrotation Xrotation
				JOINT Neck
				{
					OFFSET 0.000000 0.000000 0.000000
					CHANNELS 3 Zrotation Yrotation Xrotation
					JOINT Neck1
					{
						OFFSET 0.000000 1.600000 0.340000
						CHANNELS 3 Zrotation Yrotation Xrotation
						JOINT Head
						{
							OFFSET 0.000000 1.667000 -0.240000
							CHANNELS 3 Zrotation Yrotation Xrotation
							End Site
							{
								OFFSET 0.000000 0.000000 0.000000
							}
						}
					}
				}
				JOINT LeftShoulder
				{
					OFFSET 0.000000 0.000000 0.000000
					CHANNELS 3 Zrotation Yrotation Xrotation
					JOINT LeftArm
					{
						OFFSET 2.700000 1.550000 -0.730000
						CHANNELS 3 Zrotation Yrotation Xrotation
						JOINT LeftForeArm
						{
							OFFSET 5.450000 0.000000 0.000000
							CHANNELS 3 Zrotation Yrotation Xrotation
							JOINT LeftHand
							{
								OFFSET 3.450000 0.000000 0.000000
								CHANNELS 3 Zrotation Yrotation Xrotation
								JOINT LeftHandIndex1
								{
									OFFSET 0.750000 0.000000 0.000000
									CHANNELS 3 Zrotation Yrotation Xrotation
									End Site
									{
										OFFSET 0.000000 0.000000 0.000000
									}
								}
							}
						}
					}
				}
				JOINT RightShoulder
				{
					OFFSET 0.000000 0.000000 0.000000
					CHANNELS 3 Zrotation Yrotation Xrotation
					JOINT RightArm
					{
						OFFSET -2.700000 1.550000 -0.730000
						CHANNELS 3 Zrotation Yrotation Xrotation
						JOINT RightForeArm
						{
							OFFSET -5.450000 0.000000 0.000000
							CHANNELS 3 Zrotation Yrotation Xrotation
							JOINT RightHand
							{
								OFFSET -3.450000 0.000000 0.000000
								CHANNELS 3 Zrotation Yrotation Xrotation
								JOINT RightHandIndex1
								{
									OFFSET -0.750000 0.000000 0.000000
									CHANNELS 3 Zrotation Yrotation Xrotation
									End Site
									{
										OFFSET 0.000000 0.000000 0.000000
									}
								}
							}
						}
					}
				}
			}
		}
	}
}
MOTION
Frames: 10
Frame Time: 0.016667
0.120590 16.080630 -4.981790 -8.805194 -12.450427 -4.925122 -15.472883 10.853057 5.918858 40.851061 -2.433860 -31.233820 -20.438571 21.433663 44.766804 0.784517 11.729399 0.318603 0.693310 0.404880 0.516790 18.498700 -8.656945 2.864040 -19.940312 7.441114 -32.209252 13.133678 -13.533915 44.036500 -1.346330 -7.073281 1.694596 0.002720 -0.223470 0.370850 -3.689015 -1.950178 -9.546443 -1.520703 -6.957733 58.304646 -4.771599 -4.877580 -5.759143 2.850207 -9.197037 -19.940514 -24.198270 14.189409 37.355281 2.045720 5.006450 -41.790760 -6.059776 -26.444725 9.686806 -20.844092 0.103428 -10.467296 -85.364563 -28.151529 11.655697 -2.729305 3.321657 1.183100 -0.513880 0.656190 0.238580 2.429328 33.765920 12.612391 34.311013 10.799662 -13.815736 124.150198 54.798734 62.298280 2.553624 -1.385780 0.014680 0.240440 -0.164610 -0.151580 
0.089240 15.972780 -4.998910 -9.033263 -12.022485 -3.595815 -15.523833 10.366222 6.191741 42.569191 -1.959027 -33.839104 -21.305938 22.957259 46.385960 0.921189 12.191044 0.210071 0.596370 0.279460 0.457940 18.560060 -8.261945 3.150423 -21.055783 8.269886 -35.388398 14.252064 -15.158690 46.909284 -1.474686 -7.768277 1.482679 -0.088920 -0.189090 0.399400 -3.759802 -1.747673 -9.829924 -1.684290 -6.974502 60.953320 -4.987579 -4.281849 -10.307297 3.677613 -8.592129 -20.431032 -22.720953 13.512045 37.220164 1.738290 4.929590 -41.405750 -7.889224 -25.572039 9.238424 -18.175226 1.226776 -9.289654 -90.598944 -28.203151 14.155373 -2.754840 3.369857 1.187760 -0.494040 0.634340 0.208800 2.981318 33.027973 13.047341 30.836115 7.735359 -12.270696 130.809202 50.659599 65.575370 2.449692 -1.494192 0.007990 0.212950 -0.103180 -0.150640 
0.056040 15.879310 -5.002690 -9.778187 -12.194737 -3.502112 -15.600890 10.138315 6.342847 44.504166 -1.157955 -34.679749 -21.275725 24.101613 47.904337 0.971367 12.588599 0.119093 0.487250 0.144470 0.425840 18.563803 -7.929639 3.318207 -21.032018 9.261864 -37.046835 14.703618 -16.563758 50.001061 -1.609905 -8.401337 1.312489 -0.151520 -0.140610 0.385720 -3.698039 -1.842549 -10.022048 -2.225933 -6.657039 63.142378 -4.703490 -3.818346 -12.681824 4.504113 -8.005381 -20.549376 -21.229541 13.262635 37.758853 0.003170 5.445210 -41.712490 -8.792605 -24.694020 9.363496 -18.336240 3.375668 -9.181828 -93.238365 -31.052449 18.200033 -2.832384 3.295097 1.223050 -0.465070 0.609880 0.165430 2.393493 32.395779 12.879723 27.105303 6.588794 -11.479823 132.667275 47.980714 64.622332 2.373032 -1.490647 -0.062020 0.264540 -0.028220 -0.181500 
0.010570 15.795190 -4.986850 -9.935284 -12.432524 -3.504120 -15.661793 9.993363 6.414211 45.578903 -0.482382 -35.209154 -20.975494 25.082645 49.341607 1.049579 12.852565 0.064382 0.451600 0.101680 0.412350 18.560973 -7.653072 3.491686 -21.145944 10.033968 -38.873455 14.434920 -17.746923 53.397377 -1.771732 -9.020887 1.154103 -0.184980 -0.124020 0.380680 -3.638143 -1.958948 -10.178066 -2.943062 -5.955945 64.104375 -3.754659 -3.568756 -15.205222 4.886136 -7.892571 -20.704677 -21.333611 13.810778 39.427572 -0.155130 5.872720 -41.809760 -10.189665 -23.775802 9.697041 -20.453161 6.040855 -9.326204 -93.988845 -34.888265 22.898449 -2.875591 3.263940 1.249110 -0.465490 0.616960 0.161330 3.219819 31.995028 12.320339 23.059576 7.328318 -9.883648 131.241377 44.566474 59.376061 2.326660 -1.543512 -0.080350 0.287370 -0.011070 -0.185380 
-0.040010 15.708930 -4.950620 -10.271430 -12.849028 -4.610080 -15.728370 9.985115 6.429718 46.813201 0.411903 -34.574921 -20.190467 26.018753 51.213361 1.096501 13.148788 -0.031968 0.458200 0.099850 0.437030 18.529980 -7.451019 3.561293 -21.040291 10.964554 -38.964119 14.596315 -19.048566 56.512649 -1.957649 -9.666314 0.973016 -0.180190 -0.123890 0.394790 -3.524275 -2.167791 -10.281884 -3.342161 -5.207541 64.086044 -3.060658 -3.245717 -15.677505 5.156932 -7.692914 -20.706506 -21.120646 14.437662 41.654216 -0.684340 6.404850 -41.313380 -11.711183 -23.512261 10.226118 -24.695746 8.843002 -10.674931 -91.562429 -38.569825 25.164947 -2.941744 3.210423 1.276920 -0.457330 0.633850 0.147520 4.104428 32.226659 11.486950 19.837410 8.879100 -9.464761 127.138958 42.358536 52.276068 2.275546 -1.559364 -0.088820 0.301910 0.004560 -0.204810 
-0.088680 15.621040 -4.898730 -10.278114 -13.470754 -6.480725 -15.800450 10.119534 6.370153 47.675679 1.322793 -33.188510 -18.694298 26.782401 53.577711 1.122522 13.443386 -0.127044 0.486850 0.104760 0.502970 18.472274 -7.319755 3.558554 -20.997114 11.846028 -38.139818 14.255336 -20.063060 59.778509 -2.130836 -10.275549 0.800164 -0.154630 -0.135450 0.391640 -3.353885 -2.476694 -10.329796 -3.551275 -4.076427 63.007939 -2.540363 -2.608499 -14.477151 5.365022 -7.558252 -20.519312 -21.207482 14.893835 44.319708 -1.826990 6.603380 -40.189750 -13.354425 -23.405798 10.496974 -28.684233 10.424630 -12.224915 -86.799409 -40.822035 24.544586 -2.995792 3.126076 1.308310 -0.452150 0.642340 0.129490 5.175740 32.662240 10.824496 18.201950 10.084278 -9.749684 122.203701 41.095289 45.941819 2.240986 -1.544255 -0.114200 0.327560 0.005670 -0.243580 
-0.142500 15.543730 -4.816610 -9.754298 -13.075285 -9.141014 -15.797254 10.319631 6.224219 47.652210 1.517813 -31.442655 -16.854770 26.990037 56.032145 1.167490 13.586077 -0.194609 0.552170 0.191440 0.551410 18.441438 -7.450586 3.450123 -21.341173 11.843696 -35.994073 13.705122 -20.996779 62.683602 -2.301102 -10.819453 0.648530 -0.104330 -0.184280 0.389690 -3.288228 -2.538369 -10.278365 -3.160108 -3.667667 61.238295 -3.345616 -2.262876 -11.587135 5.286233 -7.207073 -20.346165 -20.792575 15.037119 47.349097 -1.614790 6.707030 -40.126480 -14.097368 -23.740564 10.685960 -32.837445 10.797012 -14.337926 -79.075403 -44.946318 23.906484 -2.981673 3.090347 1.319090 -0.470500 0.680330 0.133360 5.680662 33.005248 10.769941 20.304927 10.513237 -10.746849 116.383114 41.710497 41.394011 2.256409 -1.511061 -0.092330 0.322550 -0.028950 -0.255370 
-0.205280 15.478170 -4.713270 -9.644249 -12.395349 -12.059723 -15.769675 10.566906 6.046224 47.796955 1.846455 -29.564274 -14.002526 26.538178 58.653835 1.159199 13.662742 -0.240705 0.614300 0.250940 0.622370 18.416377 -7.689242 3.287562 -21.044335 11.864596 -32.837090 13.052914 -21.741089 65.245930 -2.454357 -11.271371 0.530014 -0.057490 -0.226560 0.379370 -3.256907 -2.499709 -10.190384 -2.107972 -3.853058 59.077616 -4.807596 -1.737723 -8.175949 5.172279 -6.489152 -19.996040 -19.336426 14.688081 51.267209 -1.662520 6.826780 -39.604550 -15.754742 -24.149670 10.780474 -35.809621 11.183106 -16.274689 -70.038072 -47.568705 21.184274 -2.951453 3.037085 1.348710 -0.482320 0.704630 0.127910 6.992961 33.089787 10.777734 23.840197 10.734311 -12.026182 108.540037 43.107892 36.899369 2.273391 -1.449385 -0.096890 0.329620 -0.058110 -0.290810 
-0.272090 15.424810 -4.591210 -9.814989 -11.596952 -14.932925 -15.739174 10.890276 5.807042 47.882077 2.397355 -27.527009 -10.435170 25.370160 60.873945 1.173061 13.542841 -0.218440 0.714580 0.383570 0.686580 18.383279 -7.961269 3.112480 -20.332064 11.874965 -29.132643 12.435785 -22.277643 67.391237 -2.595168 -11.637046 0.445998 0.020140 -0.282360 0.355230 -3.216849 -2.501262 -10.054284 -0.453194 -4.043012 56.387651 -5.976057 -0.881706 -4.445942 4.996708 -6.121989 -19.286991 -18.457192 14.168846 54.129500 -1.180570 6.544560 -38.282070 -18.750990 -23.972223 10.552560 -38.012799 11.279444 -17.935511 -58.914806 -50.292139 17.681602 -2.858018 3.055665 1.325040 -0.500820 0.729990 0.156430 9.908534 32.794197 10.805257 26.681588 10.338915 -13.122086 99.569610 44.536917 32.606890 2.295655 -1.449557 -0.064240 0.316300 -0.137230 -0.291420 
-0.336920 15.373170 -4.449630 -10.171772 -10.409537 -17.183535 -15.699078 11.130650 5.611658 48.155513 2.845646 -26.146605 -7.047805 24.116953 62.827545 1.185106 13.450136 -0.187207 0.779120 0.461600 0.705070 18.368916 -8.226607 2.953818 -19.718951 11.417844 -25.705437 12.075141 -22.992751 68.964022 -2.704271 -11.972587 0.374778 0.074760 -0.281810 0.352280 -3.224864 -2.429510 -9.921708 1.979091 -4.456088 52.856271 -7.153413 0.024091 -0.780585 4.792996 -5.905901 -18.192016 -17.728199 13.456086 55.736399 0.378940 5.741860 -36.169760 -21.843956 -23.059826 9.844607 -39.711352 10.213053 -19.008530 -45.683022 -53.369121 13.270037 -2.786831 3.101467 1.290000 -0.488760 0.722440 0.192170 13.044976 31.524729 11.022203 29.833639 8.873096 -14.048334 93.345601 46.881930 31.111237 2.304630 -1.466755 -0.043800 0.306570 -0.182430 -0.278690 
